<?xml version="1.0" encoding="utf-8"?>
<!-- Generator: Adobe Illustrator 26.0.0, SVG Export Plug-In . SVG Version: 6.00 Build 0)  -->
<svg version="1.1" id="Layer_1" xmlns="http://www.w3.org/2000/svg" xmlns:xlink="http://www.w3.org/1999/xlink" x="0px" y="0px"
	 viewBox="0 0 200 200" style="enable-background:new 0 0 200 200;" xml:space="preserve">
<style type="text/css">
	.st0{fill:#EFA543;}
	.st1{fill:#707070;}
</style>
<path class="st0" d="M162.5,164.2V85.9c-0.1-3.6,2.8-6.6,6.5-6.7c0.1,0,0.1,0,0.2,0c3.4-0.3,6.4,2.2,6.7,5.6c0,0.4,0,0.7,0,1.1v78.3
	c-0.3,3.6-3.1,6.4-6.7,6.7c-3.6,0.1-6.6-2.9-6.7-6.5C162.5,164.3,162.5,164.2,162.5,164.2z"/>
<path class="st1" d="M118.3,164.2v-42.5c-0.1-3.6,2.9-6.6,6.5-6.7c0.1,0,0.1,0,0.2,0c3.4-0.3,6.4,2.2,6.7,5.5c0,0.4,0,0.7,0,1.1
	v42.5c-0.8,3.3-3.3,6.7-6.7,6.7c-3.6,0.1-6.6-2.9-6.7-6.5C118.3,164.3,118.3,164.2,118.3,164.2L118.3,164.2z"/>
<path class="st0" d="M74.2,164.2V93.3c-0.1-3.6,2.9-6.6,6.5-6.7c0.1,0,0.1,0,0.2,0c3.4-0.3,6.3,2.1,6.7,5.5c0,0.4,0,0.8,0,1.2v70.8
	c-0.8,3.3-3.3,6.7-6.7,6.7c-3.7,0-6.7-2.9-6.7-6.5C74.1,164.3,74.1,164.2,74.2,164.2L74.2,164.2z"/>
<path class="st1" d="M30,164.2v-30c-0.1-3.6,2.8-6.6,6.4-6.7c0.1,0,0.2,0,0.3,0c3.4-0.3,6.4,2.2,6.7,5.6c0,0.4,0,0.7,0,1.1v30
	c-0.8,3.3-3.3,6.7-6.7,6.7c-3.6,0.1-6.6-2.8-6.7-6.4C30,164.3,30,164.2,30,164.2L30,164.2z"/>
<path class="st0" d="M23.4,105.8c-2.5-2.6-2.5-6.6,0-9.2l55.8-55c2-2.3,5.5-2.5,7.8-0.5c0.2,0.2,0.4,0.3,0.5,0.5l35.8,34.2l45.8-45
	c2.6-2.5,6.7-2.4,9.2,0.2c2.4,2.5,2.4,6.5,0,9l-50,50c-2.6,2.5-6.6,2.5-9.2,0L83.4,55.8l-51.7,50.8c-1.3,0.6-2.7,0.9-4.2,0.8
	C26,107.5,24.5,106.9,23.4,105.8L23.4,105.8z"/>
</svg>
