<?xml version="1.0" standalone="no"?><!DOCTYPE svg PUBLIC "-//W3C//DTD SVG 1.1//EN" "http://www.w3.org/Graphics/SVG/1.1/DTD/svg11.dtd"><svg t="1749988524114" class="icon" viewBox="0 0 1024 1024" version="1.1" xmlns="http://www.w3.org/2000/svg" p-id="12237" xmlns:xlink="http://www.w3.org/1999/xlink" width="200" height="200"><path d="M511.908777 332.336281c-8.36457 0-15.145504-5.56219-15.145504-12.423399v-111.467598c0-6.86121 6.780933-12.4234 15.145504-12.4234s15.145504 5.56219 15.145503 12.4234v111.467598c0.001216 6.86121-6.779717 12.4234-15.145503 12.423399zM433.993115 323.204219c-7.244348 4.182893-15.8984 2.756161-19.328396-3.185518l-55.733799-96.533733c-3.431213-5.941679-0.339351-14.149345 6.904997-18.332238 7.244348-4.182893 15.8984-2.756161 19.328397 3.185518l55.733799 96.533733c3.431213 5.942895 0.339351 14.150561-6.904998 18.332238zM590.250147 323.204219c7.244348 4.182893 15.8984 2.756161 19.328397-3.185518l55.733798-96.533733c3.431213-5.941679 0.339351-14.149345-6.904997-18.332238-7.244348-4.182893-15.8984-2.756161-19.328396 3.185518l-55.733799 96.533733c-3.431213 5.942895-0.339351 14.150561 6.904997 18.332238zM433.993115 695.335761c-7.244348-4.182893-15.8984-2.756161-19.328396 3.186735l-55.733799 96.533732c-3.431213 5.941679-0.339351 14.149345 6.904997 18.332238 7.244348 4.182893 15.8984 2.756161 19.328397-3.186734l55.733799-96.533733c3.431213-5.941679 0.339351-14.149345-6.904998-18.332238zM590.250147 695.335761c7.244348-4.182893 15.8984-2.756161 19.328397 3.186735l55.733798 96.533732c3.431213 5.941679 0.339351 14.149345-6.904997 18.332238-7.244348 4.182893-15.8984 2.756161-19.328396-3.186734l-55.733799-96.533733c-3.431213-5.941679-0.339351-14.149345 6.904997-18.332238zM511.908777 829.251593c-8.36457 0-15.145504-5.56219-15.145504-12.423399v-111.467598c0-6.86121 6.780933-12.4234 15.145504-12.4234s15.145504 5.56219 15.145503 12.4234v111.467598c0.001216 6.86121-6.779717 12.4234-15.145503 12.423399z" fill="#e46959" p-id="12238"></path><path d="M429.582772 642.224329H299.864429c-73.192726 0-132.73966-59.546934-132.73966-132.73966s59.546934-132.73966 132.73966-132.73966h125.428414v53.431323H299.864429c-43.731243 0-79.307121 35.575878-79.307121 79.307121s35.575878 79.307121 79.307121 79.307121H429.582772v53.433755zM723.953125 642.224329H597.354619v-53.432539h126.597289c43.726378 0 79.302256-35.575878 79.302256-79.307121s-35.575878-79.307121-79.302256-79.307121H597.344888v-53.431322h126.608237c73.186644 0 132.733578 59.546934 132.733578 132.739659S797.139769 642.224329 723.953125 642.224329z" fill="#e46959" p-id="12239"></path></svg>