<?xml version="1.0" standalone="no"?><!DOCTYPE svg PUBLIC "-//W3C//DTD SVG 1.1//EN" "http://www.w3.org/Graphics/SVG/1.1/DTD/svg11.dtd"><svg t="1749976286502" class="icon" viewBox="0 0 1024 1024" version="1.1" xmlns="http://www.w3.org/2000/svg" p-id="17666" xmlns:xlink="http://www.w3.org/1999/xlink" width="200" height="200"><path d="M87.319273 353.512727c-27.461818-29.323636 16.058182-73.867636 43.52-44.497454 59.578182 63.767273 142.103273 113.570909 223.092363 141.684363 204.241455 70.749091 400.802909-0.558545 558.685091-141.684363 29.789091-26.530909 73.495273 17.733818 43.566546 44.497454-20.48 18.292364-41.658182 35.653818-63.534546 51.851637l55.063273 108.218181c18.292364 35.979636-34.909091 67.770182-53.201455 31.744l-59.671272-117.248 6.376727 12.567273c-36.491636 23.04-74.472727 42.821818-113.617455 58.740364l44.544 116.084363c14.522182 37.794909-45.102545 53.992727-59.392 16.709819l-43.147636-112.453819c-42.216727 12.474182-85.550545 20.247273-129.536 22.43491l0.139636 2.327272v132.142546c0 40.541091-61.579636 40.541091-61.579636 0v-132.142546c0-1.024 0-2.048 0.139636-3.025454a505.762909 505.762909 0 0 1-127.627636-25.506909l-47.104 122.507636c-14.289455 37.329455-73.867636 21.131636-59.345454-16.709818l47.19709-123.019637a36.677818 36.677818 0 0 1 2.141091-4.654545 682.868364 682.868364 0 0 1-104.866909-55.947636l-32.954182 43.613091-39.51709 52.270545c-10.24 13.591273-26.251636 20.805818-42.123637 11.310545-13.079273-7.819636-21.317818-29.416727-11.031273-43.054545l75.869091-100.352a518.516364 518.516364 0 0 1-52.130909-48.407273z" fill="#333333" p-id="17667"></path></svg>