<?xml version="1.0" standalone="no"?><!DOCTYPE svg PUBLIC "-//W3C//DTD SVG 1.1//EN" "http://www.w3.org/Graphics/SVG/1.1/DTD/svg11.dtd"><svg t="1749976275032" class="icon" viewBox="0 0 1024 1024" version="1.1" xmlns="http://www.w3.org/2000/svg" p-id="17508" xmlns:xlink="http://www.w3.org/1999/xlink" width="200" height="200"><path d="M511.85 459.55m-193.43 0a193.43 193.43 0 1 0 386.86 0 193.43 193.43 0 1 0-386.86 0Z" fill="#050500" p-id="17509"></path><path d="M511.85 766.34c-160.66 0-306.95-89.12-391.31-238.42l-9.19-16.25 9.19-16.25c84.37-149.27 230.65-238.39 391.31-238.39s306.95 89.12 391.32 238.39l9.18 16.25-9.18 16.25c-84.37 149.3-230.66 238.42-391.32 238.42zM187.63 511.68c73.62 118.48 193.55 188.64 324.22 188.64 130.68 0 250.6-70.17 324.23-188.64-73.63-118.48-193.55-188.62-324.23-188.62-130.67 0-250.59 70.14-324.22 188.62z" fill="#050500" p-id="17510"></path><path d="M389.84 491.65c-1.61 0-3.22-0.11-4.86-0.34-18.05-2.66-30.5-19.45-27.85-37.48 10.62-71.82 65.48-129.89 136.57-144.5 17.73-3.61 35.29 7.82 38.98 25.7 3.65 17.86-7.84 35.31-25.7 38.98-43.99 9.03-77.97 44.98-84.52 89.44-2.42 16.4-16.52 28.2-32.62 28.2z" fill="#FFFFFF" p-id="17511"></path></svg>