<?xml version="1.0" standalone="no"?><!DOCTYPE svg PUBLIC "-//W3C//DTD SVG 1.1//EN" "http://www.w3.org/Graphics/SVG/1.1/DTD/svg11.dtd"><svg t="1749982617917" class="icon" viewBox="0 0 1024 1024" version="1.1" xmlns="http://www.w3.org/2000/svg" p-id="45445" xmlns:xlink="http://www.w3.org/1999/xlink" width="200" height="200"><path d="M504.470588 124.235294a289.882353 289.882353 0 0 0-289.882353 289.882353c0 107.158588 51.832471 216.033882 137.637647 321.837177a1034.992941 1034.992941 0 0 0 116.555294 121.584941l13.19153 11.38447 6.023529 4.99953a26.352941 26.352941 0 0 0 32.948706 0l6.02353-4.99953 6.023529-5.12a1034.992941 1034.992941 0 0 0 123.693176-127.819294c85.835294-105.833412 137.667765-214.738824 137.667765-321.867294a289.882353 289.882353 0 0 0-289.882353-289.882353z m0 52.705882a237.176471 237.176471 0 0 1 237.176471 237.176471c0 92.702118-46.983529 191.337412-125.891765 288.647529a982.799059 982.799059 0 0 1-88.214588 94.900706l-12.709647 11.806118-10.390588 9.246118-7.890824-7.04753-15.149176-14.004706a982.799059 982.799059 0 0 1-88.244706-94.870588c-78.908235-97.340235-125.861647-195.975529-125.861647-288.677647a237.176471 237.176471 0 0 1 237.17647-237.176471z" fill="#b8b8b8" p-id="45446"></path><path d="M504.470588 282.352941a131.764706 131.764706 0 1 0 0 263.529412 131.764706 131.764706 0 0 0 0-263.529412z m0 52.705883a79.058824 79.058824 0 1 1 0 158.117647 79.058824 79.058824 0 0 1 0-158.117647z" fill="#b8b8b8" p-id="45447"></path></svg>