<?xml version="1.0" encoding="utf-8"?>
<!-- Generator: Adobe Illustrator 26.0.0, SVG Export Plug-In . SVG Version: 6.00 Build 0)  -->
<svg version="1.1" id="图层_1" xmlns="http://www.w3.org/2000/svg" xmlns:xlink="http://www.w3.org/1999/xlink" x="0px" y="0px"
	 viewBox="0 0 200 200" style="enable-background:new 0 0 200 200;" xml:space="preserve">
<style type="text/css">
	.st0{fill:#7F5D5D;}
	.st1{fill:#CC9B9B;}
</style>
<path class="st0" d="M113.8,185.1c-1.6,0-3.1-0.5-4.3-1.5l-49.6-39.9H19.3c-1.8,0-3.6-0.7-4.8-2c-1.3-1.3-2-3-2-4.8V63.1
	c0-1.8,0.7-3.6,2-4.8c1.3-1.3,3-2,4.8-2h40.5l49.6-39.9c2.1-1.7,4.9-2,7.3-0.8c2.4,1.1,3.9,3.5,3.9,6.2v156.6c0,1.8-0.7,3.6-2,4.8
	C117.3,184.4,115.6,185.1,113.8,185.1L113.8,185.1z"/>
<path class="st1" d="M26.2,130h36.1c1.6,0,3.1,0.5,4.3,1.5l40.3,32.5V36L66.6,68.5c-1.2,1-2.7,1.5-4.3,1.5H26.2V130z"/>
<path class="st0" d="M180.7,106.9H144c-3.8,0-6.9-3.1-6.9-6.9c0-3.8,3.1-6.9,6.9-6.9h36.7c3.8,0,6.9,3.1,6.9,6.9
	C187.5,103.8,184.4,106.9,180.7,106.9z M175.8,179.6c-1.2,0-2.4-0.3-3.4-0.9l-31.9-18.2c-3.3-1.9-4.4-6.1-2.6-9.4
	c1.9-3.3,6.1-4.4,9.3-2.6l31.9,18.2c2.7,1.5,4,4.7,3.2,7.7C181.7,177.5,178.9,179.6,175.8,179.6z M144,52.3c-3.1,0-5.8-2.1-6.6-5.1
	c-0.8-3,0.5-6.2,3.2-7.7l31.9-18.2c3.3-1.8,7.4-0.6,9.3,2.6c1.9,3.3,0.8,7.4-2.5,9.3l-31.9,18.2C146.3,52,145.1,52.3,144,52.3z"/>
</svg>
