<svg id="Layer_1" data-name="Layer 1" xmlns="http://www.w3.org/2000/svg" viewBox="0 0 256 256"><defs><style>.cls-1{fill:none;}.cls-2{fill:#d1d0d2;}.cls-3{fill:#f7efe4;}.cls-4{fill:#7b6d6d;}.cls-5{fill:#f9dcd2;}.cls-6{fill:#f4d9d3;}.cls-7{fill:#f6f6eb;}.cls-8{fill:#1c1c1b;}.cls-9{fill:#e3d9d3;}.cls-10{fill:#101210;}</style></defs><path class="cls-1" d="M66.33,72.11A73.94,73.94,0,0,0,55.05,60.47,46.92,46.92,0,0,0,43.86,53c-4-1.79-8-.93-9.58,4-1.36,4.18-1.15,8.43-1.21,13.76-.49,5.17.84,11.27,1.62,17.39a29.59,29.59,0,0,0,1.72,7.52c1,2.39,2.2,2.8,4.23,1.17,1.35-1.09,2.59-2.33,3.92-3.46A108.35,108.35,0,0,1,58.93,83.15c2.4-1.46,4.85-2.85,7.23-4.36,1.74-1.1,2.09-2.36,1.5-4.34A7.64,7.64,0,0,0,66.33,72.11Z"/><path class="cls-1" d="M183.66,58a70,70,0,0,0-5.2-14.74,9,9,0,0,0-6.82-5,4.88,4.88,0,0,0-3.76,1.53c-6.39,6.67-10.27,14.7-12.83,23.45-.7,2.38.29,4.08,2.65,4.29,2.93.25,5.61,1.33,8.37,2.08,5.13,1.41,10.15,3.25,15.22,4.89,3.12,1,4.92-.53,4.51-3.79A124.19,124.19,0,0,0,183.66,58Z"/><path class="cls-2" d="M212.63,153.38c-6-.89,1.18-4.45,5.42-3.84a46.16,46.16,0,0,1,6.62,2.56l0-.24c0-.33.05-.59.06-.82.36-2,1.6-17.62.2-22.81,0-.06-2.1-6.68-3.77-11.76-3.43-.54-14.29-.33-15.85-1.34-1.79-1.17.4-4.09.4-4.09,2.86-1.55,9.15-2.32,12.22-2.62C211.85,97.77,196.71,81.94,196.58,81c-.5-3.15-.86-6.33-1.4-9.47A163.64,163.64,0,0,0,184.67,36.3a26.85,26.85,0,0,0-7-10.22A7.1,7.1,0,0,0,170,24.47a21.59,21.59,0,0,0-7.36,4.81,87.26,87.26,0,0,0-11.57,14.06A118.19,118.19,0,0,0,140.38,63c-1.23,2.84-2.06,3.58-5.13,3.48h-.5c1.5,7.39,3.65,22.08-1.74,22.15-3.11,0-4.76-17.33-5.15-22.1-3,.13-6,.35-9,.62l-.9.1c3.69,9.82,9.75,29.27,2.37,30.52-4.34.74-10.49-23.25-12-29.34-3.21.48-6.41,1.06-9.58,1.74,2.62,6,7.22,24.07,3.73,23.76s-10-21.69-10-21.69.11-.25.3-.62c-2.28.6-4.55,1.25-6.8,2-3.74,1.21-6.08.19-7.76-2.69a62,62,0,0,0-7.54-10.14,110,110,0,0,0-14.3-13.25c-5.09-4-10.3-7.78-16.51-9.89-7.51-2.54-12.78-1.34-16,6-.12.27-.23.55-.35.82C21,51,19.9,57.88,19.15,64.84a110.41,110.41,0,0,0,3.56,42C23.32,109,16.4,121,15.57,123c-1.41,3.51-2.66,11.57-2.51,21.52,2.33-.52,21.81-4.76,28-2.86,6.58,2-22.64,18.22-26.41,18.22a1.24,1.24,0,0,1-.27,0c2.46,15.46,8.74,32.14,22.13,43a54.66,54.66,0,0,0,8.71,5.63c-2.75-2.93-4.1-5.37-3.3-7,18-37.26,73.8-52.13,94.66-58.57,17.24-5.33,62.17,7.14,85,25a83,83,0,0,0,2.34-10.36C221.21,156.18,216.57,154,212.63,153.38ZM49.75,180.15C43.74,183.4,35.19,200,34.46,200s-7.11-8.48-7.11-8.48c7.85-9.2,20.71-14.85,20.71-14.85S55.75,176.91,49.75,180.15ZM66.16,78.79c-2.38,1.51-4.83,2.9-7.23,4.36A108.35,108.35,0,0,0,44.56,93.31c-1.33,1.13-2.57,2.37-3.92,3.46-2,1.63-3.26,1.22-4.23-1.17a29.59,29.59,0,0,1-1.72-7.52c-.78-6.12-2.11-12.22-1.62-17.39.06-5.33-.15-9.58,1.21-13.76,1.6-4.91,5.62-5.77,9.58-4a46.92,46.92,0,0,1,11.19,7.52A73.94,73.94,0,0,1,66.33,72.11a7.64,7.64,0,0,1,1.33,2.34C68.25,76.43,67.9,77.69,66.16,78.79Zm115.13-4.27c-5.07-1.64-10.09-3.48-15.22-4.89-2.76-.75-5.44-1.83-8.37-2.08-2.36-.21-3.35-1.91-2.65-4.29,2.56-8.75,6.44-16.78,12.83-23.45a4.88,4.88,0,0,1,3.76-1.53,9,9,0,0,1,6.82,5A70,70,0,0,1,183.66,58a124.19,124.19,0,0,1,2.14,12.7C186.21,74,184.41,75.53,181.29,74.52Z"/><path class="cls-3" d="M59,218.92c.67.32,1.34.62,2,.93.81-1.86,1.25-3.49-.64-4.32-4.85-2.14-10.2-4.36-15.15-7,3.39,3.61,8.91,8,15.2,12.65.2-.45.41-.9.59-1.33C60.34,219.54,59.67,219.24,59,218.92Z"/><path class="cls-3" d="M188.1,217.54h0c.65-1,1.28-2,1.91-2.86-.73.44-1.48.85-2.22,1.27C187.87,216.41,188,216.92,188.1,217.54Z"/><path class="cls-3" d="M202.64,199.76c-4.11,4.18-8.18,9.13-13,12.47-1.92,1.32-2.14,2-1.87,3.73.74-.42,1.49-.83,2.22-1.27,2.44-3.49,4.67-6,6.11-7a81.79,81.79,0,0,0,28.58-37.11c-1-.87-2-1.73-3.11-2.57a69.28,69.28,0,0,1-2.79,7.77A78.29,78.29,0,0,1,202.64,199.76Z"/><path class="cls-3" d="M136.58,142.93c-20.86,6.44-76.65,21.31-94.66,58.57-.8,1.66.55,4.1,3.3,7,5,2.64,10.3,4.86,15.15,7,1.89.83,1.45,2.46.64,4.32C99.14,237.54,149,238,187.79,216c-.27-1.69,0-2.41,1.87-3.73,4.8-3.34,8.87-8.29,13-12.47a78.29,78.29,0,0,0,16.16-24,69.28,69.28,0,0,0,2.79-7.77C198.75,150.07,153.82,137.6,136.58,142.93Z"/><path class="cls-4" d="M98.51,69.61c-2.12-4.47-4.86.2-5.76,2q3-.8,6-1.45C98.66,70,98.58,69.78,98.51,69.61Z"/><path class="cls-4" d="M102.47,93.89c3.49.31-1.11-17.73-3.73-23.76q-3,.66-6,1.45c-.19.37-.3.62-.3.62S98.88,93.57,102.47,93.89Z"/><path class="cls-4" d="M134.75,66.44c-.19-.94-.37-1.76-.53-2.42l-6.46,1.27s0,.45.1,1.2C130.15,66.4,132.45,66.37,134.75,66.44Z"/><path class="cls-4" d="M133,88.59c5.39-.07,3.24-14.76,1.74-22.15-2.3-.07-4.6,0-6.89,0C128.25,71.26,129.9,88.63,133,88.59Z"/><path class="cls-4" d="M116.63,63.87,108,67s.12.51.34,1.4c3.19-.48,6.39-.88,9.61-1.18C117.45,65.91,117,64.77,116.63,63.87Z"/><path class="cls-4" d="M120.3,97.73c7.38-1.25,1.32-20.7-2.37-30.52-3.22.3-6.42.7-9.61,1.18C109.81,74.48,116,98.47,120.3,97.73Z"/><path class="cls-4" d="M12.83,144.61S11,159.14,14.38,159.88a110,110,0,0,1-1.32-15.33Z"/><path class="cls-4" d="M41.06,141.69c-6.19-1.9-25.67,2.34-28,2.86a110,110,0,0,0,1.32,15.33,1.24,1.24,0,0,0,.27,0C18.42,159.91,47.64,143.71,41.06,141.69Z"/><path class="cls-4" d="M48.06,176.67s-12.86,5.65-20.71,14.85c0,0,6.39,8.48,7.11,8.48s9.28-16.6,15.29-19.85S48.06,176.67,48.06,176.67Z"/><path class="cls-4" d="M226.25,158.92l1.62-5.38s-1.42-.66-3.2-1.44c-.2,1.85-.44,3.69-.74,5.52C225.35,158.37,226.25,158.92,226.25,158.92Z"/><path class="cls-4" d="M212.63,153.38c3.94.59,8.58,2.8,11.3,4.24.3-1.83.54-3.67.74-5.52a46.16,46.16,0,0,0-6.62-2.56C213.81,148.93,206.64,152.49,212.63,153.38Z"/><path class="cls-4" d="M221.19,116.47a2.35,2.35,0,0,1,1,.29c1,.93-2.43-8.49-2.43-8.49l-1.78.15c.49.84.92,1.66,1.28,2.43C219.51,111.42,220.29,113.72,221.19,116.47Z"/><path class="cls-4" d="M205.34,115.13c1.56,1,12.42.8,15.85,1.34-.9-2.75-1.68-5-1.95-5.62-.36-.77-.79-1.59-1.28-2.43-3.07.3-9.36,1.07-12.22,2.62C205.74,111,203.55,114,205.34,115.13Z"/><path class="cls-5" d="M27.17,68.61c.57-6.55.72-11.8,2.8-16.8,2.45-5.89,7.53-6.56,12.28-4A59,59,0,0,1,55.44,58.14,90.51,90.51,0,0,1,68.36,73.53a9.22,9.22,0,0,1,1.43,3c.55,2.49,0,4-2.27,5.2-3.09,1.63-6.27,3.1-9.4,4.67A136.11,136.11,0,0,0,39.31,97.52c-1.75,1.27-3.41,2.67-5.2,3.88-2.67,1.81-4.16,1.2-5.14-1.83a36.71,36.71,0,0,1-1.44-9.42C27.15,82.55,26.08,74.92,27.17,68.61Z"/><path class="cls-5" d="M172.15,35a10.62,10.62,0,0,1,8,6.06,83.37,83.37,0,0,1,6,17.6,100.11,100.11,0,0,1,2.13,14.9c.44,3.89-.26,4.56-4,3.31-6-2-18.58-4.7-29.18-7.29-2.74-.67-4-2.32-3.09-5.14,3.18-10.36,7.92-19.86,15.62-27.68A5.72,5.72,0,0,1,172.15,35Z"/><path class="cls-6" d="M137.61,149.54a12.15,12.15,0,0,1-10.22-6.17c-.82-2.29-.59-3.34,1.16-4.88a17.41,17.41,0,0,1,14.62-4.08c2.59.38,4.74,1.71,5.3,4.47.05,2.81-1.95,6.55-4.38,8.45A9.45,9.45,0,0,1,137.61,149.54Z"/><path class="cls-7" d="M107.42,135.8a16,16,0,0,1-1.93-3c-1.16-2.22-2.37-4.3-4.67-5.5s-5.41-1.2-8.08-1.3c-2.91-.1-5.81-.11-8.72,0a126.31,126.31,0,0,0-20,2.31,2.36,2.36,0,0,0-1.47.91,1.92,1.92,0,0,0-1.41.71,2.06,2.06,0,0,0,.28,2.86c3.06,2.12,5,5.46,7.94,7.67A16.33,16.33,0,0,0,75.17,143a2.71,2.71,0,0,0,.72.61c2.39,1.38,5.16,1.5,7.85,1.52,2.91,0,5.82,0,8.72-.24a39.78,39.78,0,0,0,9-1.52,30.84,30.84,0,0,0,3.93-1.55c1.18-.55,2.88-1,3.47-2.31C109.56,138,108.31,136.83,107.42,135.8ZM80,130.3l1.83-.1A11.35,11.35,0,0,1,80,130.3Z"/><path class="cls-8" d="M57.17,128.68c5.19-1.42,10.38-2.65,15.64-3.74,8-1.51,16.1-3.25,24.42-2.41a11.29,11.29,0,0,1,4.68,1.56,18.51,18.51,0,0,1,3.35,3.09,48,48,0,0,1,8,14.68l-4.36,1.48a57.87,57.87,0,0,0-3-7,34.39,34.39,0,0,0-4-6.29c-1.59-1.83-2.69-2.94-5.3-3.26-7.58-.89-15.48.59-23.08,1.84-5.18,1-10.37,2.06-15.47,3.32l-.88-3.27Z"/><path class="cls-8" d="M61.74,129.24a23,23,0,0,0,20.53,14.37,60.24,60.24,0,0,0,26.66-5.43l1.9,4.19a59.42,59.42,0,0,1-7,2.48c-9.43,2.58-19.71,4.15-29.27,1.05a26.6,26.6,0,0,1-15.69-15.67l2.86-1Z"/><path class="cls-7" d="M190.13,102.86a34.79,34.79,0,0,0-12.41,1.63c-3.71,1.21-7.06,3.2-10.55,4.92-3.16,1.56-6.84,2.56-7.85,6.38a34.67,34.67,0,0,0-.79,5.92,41.93,41.93,0,0,0-.06,6.24,1.84,1.84,0,0,0,1.93,1.77,1.81,1.81,0,0,0,1.68.66c4.07-.42,8.16-.76,12.21-1.31a27.84,27.84,0,0,0,5.87-1.22,27.68,27.68,0,0,0,4.75-2.8,11.3,11.3,0,0,0,3.9-3.5,35.24,35.24,0,0,0,3-4.76c.82-1.85.49-3.94.37-5.9l-.38-6.23A2,2,0,0,0,190.13,102.86Z"/><path class="cls-8" d="M156.37,133.37c-1.27-6.87-2.8-18.2,3.55-23a57.62,57.62,0,0,1,20.87-8.62,69.19,69.19,0,0,1,14.9-1.38v2.92A66.1,66.1,0,0,0,181.51,105a53.85,53.85,0,0,0-19.27,8.59c-3,2.52-2.78,8-2.52,11.85a49.71,49.71,0,0,0,1.12,6.87l-4.47,1.07Z"/><path class="cls-8" d="M192.94,101.65c2.39,11.9-.23,26.78-14.22,29.16a122.49,122.49,0,0,1-13.64,1.86,22.21,22.21,0,0,1-6.89-.34,3.6,3.6,0,0,1-1.59-.91l3.43-3.08a1.65,1.65,0,0,0-.29-.26l-.09-.07-.09,0s-.06,0,0,0l.16,0a20.78,20.78,0,0,0,5.19.32A122.24,122.24,0,0,0,178.07,127c11.89-1.48,13.83-14.9,12.25-24.8l2.62-.54Z"/><ellipse class="cls-8" cx="84.35" cy="134.17" rx="4.33" ry="8.48" transform="translate(-22.96 17.55) rotate(-10.46)"/><ellipse class="cls-8" cx="170.98" cy="116.24" rx="4.33" ry="8.48" transform="translate(-10.46 17.12) rotate(-5.56)"/><path class="cls-9" d="M64.29,221.63a78.22,78.22,0,0,0,26.38,3.87c2.61-.07,2.62-4.13,0-4.06a74.9,74.9,0,0,1-25.3-3.72c-2.49-.82-3.56,3.1-1.08,3.91Z"/><path class="cls-9" d="M182.18,212.56c-1.41.8-2.77,1.69-4.24,2.38l-.56.26c-.42.19.44-.17,0,0l-.31.12c-.48.18-1,.35-1.44.5a35,35,0,0,1-3.9.92,2,2,0,0,0-1.42,2.49,2.08,2.08,0,0,0,2.5,1.42,28.74,28.74,0,0,0,7.07-2.15c1.51-.7,2.9-1.62,4.35-2.43a2,2,0,0,0-2-3.51Z"/><path class="cls-8" d="M125.28,236.39A152.84,152.84,0,0,1,102,234.57a166.73,166.73,0,0,1-44.3-13.07c-37.63-19.84-46.63-50.09-47.56-72a110,110,0,0,1,6.7-42.11c-1.38-7.67-10.07-61,11.73-73.77,7.51-4.41,19.08.59,35.37,15.27A245,245,0,0,1,83.79,69.25C91.32,67,119.85,59,138.09,60.64c3.35-8.83,16.68-40.71,35.07-41h.22c20.11,0,27.12,49.27,28.27,58.66,4.47,4.75,28.07,31,29.1,57.17,1.31,33.25-11.06,59.15-38.94,81.49l-.19.14C169.6,232,145.74,236.39,125.28,236.39ZM34.55,37.86a5.86,5.86,0,0,0-3,.75c-16.2,9.5-11.87,52.71-8.83,68.56l.16.86-.34.8a105.18,105.18,0,0,0-6.58,40.65C17.25,179,32.2,201.53,60.34,216.37a164.28,164.28,0,0,0,42.74,12.54c22.6,3.47,55.72,3.4,85.22-16.54,26.27-21.09,37.93-45.47,36.7-76.71-1-26-27.88-53.81-28.15-54.09l-.69-.7-.11-1c-2.42-21.13-10.71-54.53-22.68-54.53h-.11c-14,.24-26.79,28.48-30.52,39.34L142,67l-2.37-.35c-19-2.82-55.54,8.57-55.9,8.69l-1.84.57L80.62,74.4C67,58.17,45.2,37.86,34.55,37.86Z"/><path class="cls-8" d="M17,203.15c7.25-6.29,16.07-10.16,25.28-12.53a255,255,0,0,1,26.26-5.19,118,118,0,0,1,13.28-1.33c2.61-.08,2.62-4.14,0-4.06-8.88.28-17.78,1.87-26.48,3.54-8,1.55-16.23,3.13-23.81,6.22a62,62,0,0,0-17.4,10.48,2,2,0,0,0,0,2.87,2.07,2.07,0,0,0,2.87,0Z"/><path class="cls-8" d="M41.07,221.51c2.06-4.29,5.57-7.77,9.17-10.81A70.21,70.21,0,0,1,63.46,202a47.27,47.27,0,0,1,7-3c2.48-.8,1.42-4.72-1.08-3.91a61.1,61.1,0,0,0-14,6.84,63.32,63.32,0,0,0-13,10.71,29.43,29.43,0,0,0-4.79,6.82,2.09,2.09,0,0,0,.73,2.78,2,2,0,0,0,2.78-.73Z"/><path class="cls-8" d="M190,166.24a163.93,163.93,0,0,1,23.76.69c6.72.7,13.59,2,19.77,4.81a51.38,51.38,0,0,1,9.33,5.62,2,2,0,0,0,2.78-.73,2.08,2.08,0,0,0-.73-2.77,52.36,52.36,0,0,0-18.39-8.79,107.62,107.62,0,0,0-22.68-2.89c-4.61-.18-9.23-.19-13.84,0-2.6.1-2.62,4.16,0,4.06Z"/><path class="cls-8" d="M193,185l1.14.44.37.15.68.3c1,.44,1.93.9,2.87,1.38,2.2,1.12,4.35,2.33,6.46,3.59a115,115,0,0,1,13.14,9.09,60.35,60.35,0,0,1,6.07,5.57c1.79,1.91,4.65-1,2.87-2.87a76.92,76.92,0,0,0-12.08-10.11,117.44,117.44,0,0,0-13.85-8.48,55.58,55.58,0,0,0-6.59-3,2,2,0,0,0-2.5,1.41A2.08,2.08,0,0,0,193,185Z"/><path class="cls-10" d="M133.92,170.91c2-2.48,4.67-4,7.41-5.45a8.18,8.18,0,0,1,.87-.32c2.24-.44,4.42.45,6.52,1,1.63.55,3.3.91,4.67,2.24l-.58,1.8c-2.67.33-4.89-.78-7.39-1.11a13.05,13.05,0,0,0-2.2-.28s-.09,0-.14,0c-2.68,1.14-4.84,3.2-7.71,4.09l-1.45-2Z"/><path class="cls-10" d="M142.89,158.92a8.54,8.54,0,0,1,1.45,3.91,13.43,13.43,0,0,1,.21,4.39l-3.44-.26c-.07-1.05-.22-2.3-.38-3.54a11.7,11.7,0,0,1-.21-3.87l2.37-.63Z"/></svg>