<svg id="Layer_1" data-name="Layer 1" xmlns="http://www.w3.org/2000/svg" viewBox="0 0 512 512"><defs><style>.cls-1{fill:#ede1e2;}.cls-2{fill:#f9d0d0;}.cls-17,.cls-3{fill:#f4eadc;}.cls-15,.cls-3,.cls-4,.cls-6{stroke:#1c1c1b;}.cls-15,.cls-21,.cls-3,.cls-4,.cls-6{stroke-miterlimit:10;}.cls-3,.cls-6{stroke-width:2.13px;}.cls-15,.cls-21,.cls-4,.cls-6{fill:none;}.cls-4{stroke-width:4.25px;}.cls-5{fill:#f8fcfc;}.cls-7{fill:#d1d0d2;}.cls-8{fill:#f9dcd2;}.cls-9{fill:#f7efe4;}.cls-10{fill:#e3d9d3;}.cls-11{fill:#f4d9d3;}.cls-12{fill:#f6f6eb;}.cls-13{fill:#1c1c1b;}.cls-14{fill:#7b6d6d;}.cls-15{stroke-width:7.09px;}.cls-16{fill:#101210;}.cls-18{fill:#e2bf96;}.cls-19{fill:#f9f2ea;}.cls-20{fill:#f4e4ca;}.cls-21{stroke:#4c4b4b;stroke-width:0.28px;}.cls-22{fill:#f2e7da;}.cls-23{fill:#bfe3ea;}.cls-24{fill:#eaf6fc;}</style></defs><path class="cls-1" d="M343.62,376.74s12.64,39.11,39.44,53.29c0,0-.92,8,2.16,8.32s42.53,2.46,44.68,0,1.23-8.94,1.23-8.94,38.37-19.82,35.85-56.9C466,358.24,338.69,360.76,343.62,376.74Z"/><path class="cls-2" d="M357.11,404.4s55.3,11.31,100.38,1.34c0,0-13.44,16.64-26.36,23.67,0,0,1,8.24-1.23,8.94s-41.63,1.44-44.68,0-2.16-8.32-2.16-8.32S363.72,419.5,357.11,404.4Z"/><ellipse class="cls-3" cx="404.75" cy="373.13" rx="60.1" ry="9.29" transform="translate(-10.07 11.23) rotate(-1.57)"/><path class="cls-4" d="M343.62,376.74s12.64,39.11,39.44,53.29c0,0-.92,8,2.16,8.32s42.53,2.46,44.68,0,1.23-8.94,1.23-8.94,38.37-19.82,35.85-56.9C466,358.24,338.69,360.76,343.62,376.74Z"/><path class="cls-5" d="M350.52,378.11s55.12-13.5,108.37-2.4C458.89,375.71,410.46,390.46,350.52,378.11Z"/><ellipse class="cls-6" cx="404.75" cy="373.13" rx="60.1" ry="9.29" transform="translate(-10.07 11.23) rotate(-1.57)"/><path class="cls-7" d="M364.81,150.65c0-.13-6.37-20.25-7.35-22.36-6.29-13.46-28.95-37.08-29.14-38.33-.64-4-1.11-8.14-1.8-12.18A210.19,210.19,0,0,0,313,32.44a34.48,34.48,0,0,0-9-13.13c-2.92-2.56-6.08-3.47-9.87-2.07a27.47,27.47,0,0,0-9.45,6.18A112.27,112.27,0,0,0,269.84,41.5a151.36,151.36,0,0,0-13.78,25.24c-1.57,3.65-2.65,4.6-6.6,4.47a168.91,168.91,0,0,0-21.1.86,193.08,193.08,0,0,0-42.28,8.28c-4.8,1.56-7.82.24-10-3.46a79.32,79.32,0,0,0-9.69-13,141.07,141.07,0,0,0-18.39-17c-6.53-5.11-13.24-10-21.22-12.72-9.66-3.27-16.43-1.72-20.53,7.7-.16.36-.31.71-.45,1.07-3.31,8.44-4.66,17.31-5.63,26.26a142,142,0,0,0,4.58,54c.79,2.78-8.11,18.1-9.18,20.77-5.18,12.94-8.69,73.77,26.93,102.7,8.62,7,20.49,11.75,30.68,16.24,3.59,1.57.63,5.4-.71,9.11-.61,1.66-4.54,14.15-5.05,15.85-4.19,13.94-12.09,47.73-13.93,57.69-1.93,10.36-5,48.46-2.09,58.14,5.24,17.39,15.38,47.53,79.48,41.79,1.94-.17,11.45-.25,16.37,3a24.77,24.77,0,0,0,9.28,3.49c4.42.87,4.46.78,4.47-3.79a15.77,15.77,0,0,0-.28-3c-.45-2.43.49-4.46,2.44-5.14s3.79.32,4.84,2.56a13.31,13.31,0,0,1,1,8.16c-.17,1-.33,2,1.16,1.87,2.47-.25,4.94-.24,7.41-.7s3.11-1.82,3.1-4a23.43,23.43,0,0,0-1.37-6.79,3.37,3.37,0,0,1,1.37-4.11,3.71,3.71,0,0,1,4.36.1,6.52,6.52,0,0,1,2.51,3.25,17.25,17.25,0,0,1,1.22,5.88c0,1.52.6,1.5,1.69.83,3.6-2.26,4.71-5.75,4.9-9.71.3-6.16-3.07-10.81-9-12.37a4.29,4.29,0,0,1-3.48-4.1c-.21-2.24-.28-4.49-.45-6.73-.7-8.47-1.43-17-2.13-25.44-.4-4.77-1.19-9.52-1.16-14.33,0-3,1.52-4.76,3.9-4.82s4,1.44,4.35,4.45q2.44,20.87,3.79,41.84c.05.83.11,1.58,1,1.89,3.56,1.27,6.16,3.76,8.9,7.23-.5-6.18-.92-11.65-1.39-17.12q-.91-10.86-1.91-21.7c-.23-2.54-.6-5.07-.8-7.6-.21-2.79,1.31-5.07,3.43-5.35,2.56-.35,4.44,1.27,4.87,4.42.6,4.53,1.16,9.07,1.64,13.61,1.33,12.64,1.55,25.4,3.67,37.93,1.26,7.46,4.52,13.5,12.84,15.28,3.19.67,3.66.47,4.69-2.64a20.74,20.74,0,0,0,.74-6.64c0-2.57,1.45-4.4,3.4-4.62s3.54,1.12,4.27,3.52.45,4.57.3,6.9c-.09,1.49-1.72,3.3-.5,4.21s3.13.27,4.75.3a9.21,9.21,0,0,0,1.16-.15,2.88,2.88,0,0,0,2.69-2.2c.74-2.54,1.31-5.07.51-7.74s.12-4.79,2.12-5.43,4.1.33,5.12,2.85a13.88,13.88,0,0,1,1.06,7c-.08.67-.4,1.55.2,2,.79.53,1.41-.33,2-.7,4.75-2.84,6-7.4,5.45-12.43a11.33,11.33,0,0,0-9.14-10.43c-3.14-.78-4.47-2.32-4.57-5.54-.36-12.14-.82-24.29-1-36.43-.2-15.2-1.88-30.28-2.8-45.43q-1-16.9-3.44-33.71c-1.53-10.65-.89-21.15-3-31.68-.76-3.79-1.11-4.68,2-6.83,6.18-4.29,11.41-10.66,16.7-16a100.57,100.57,0,0,0,20.77-30.86A104.62,104.62,0,0,0,364.48,181c0-.42.06-.76.07-1.06C365,177.42,366.61,157.32,364.81,150.65ZM160.64,87.08c-3.06,1.94-6.21,3.72-9.3,5.6a141.68,141.68,0,0,0-18.48,13.06c-1.7,1.46-3.29,3.05-5,4.45-2.6,2.1-4.18,1.57-5.43-1.49A38.8,38.8,0,0,1,120.17,99c-1-7.87-2.7-15.71-2.08-22.36.08-6.85-.18-12.32,1.56-17.68,2.06-6.32,7.22-7.43,12.32-5.13a60.46,60.46,0,0,1,14.38,9.67,95.14,95.14,0,0,1,14.51,15,9.67,9.67,0,0,1,1.7,3C163.32,84,162.88,85.66,160.64,87.08Zm148-5.49c-6.51-2.11-13-4.47-19.56-6.29-3.55-1-7-2.36-10.76-2.68-3-.26-4.31-2.45-3.42-5.51,3.29-11.26,8.29-21.58,16.51-30.15a6.21,6.21,0,0,1,4.83-2A11.47,11.47,0,0,1,305,41.44a90,90,0,0,1,6.69,19,160.65,160.65,0,0,1,2.76,16.32C315,80.91,312.68,82.88,308.66,81.59Z"/><path class="cls-7" d="M37.84,459.56c.31-11.07,3.47-19.23,10.35-26.28,8.75-9,21-14.81,32.62-19.11,8.09-3,16.9-3.74,25.36-5.28,6.24-1.14,13.39-3.33,19.72-3.71,1.39-.08,2.92.22,3.29,1.63,2,7.56,6.91,15.81,11.48,22.21,1.4,2,.4,5.21-2.09,5.65-10.22,1.81-22.27,4-32.1,7.4-7.43,2.59-9.11,3.47-16.7,7.91-.73.69-4.43,3.56-5,4.35-2.41,3.06,1,4.73,4.09,7.13,2.33,1.83,4,5.34,5.74,7.83,4.08,6-2.4,11.41-6.64,15.27s-9.18,5.18-14.55,5.27-13.24,3.92-18.13,1.73C43.37,486.25,38.66,471.05,37.84,459.56Z"/><path class="cls-8" d="M110.51,74c.73-8.42.92-15.17,3.59-21.6,3.15-7.57,9.69-8.44,15.8-5.13,6.4,3.46,11.83,8.2,17,13.26a117.23,117.23,0,0,1,16.61,19.79,12,12,0,0,1,1.84,3.86c.7,3.2,0,5.15-2.92,6.68-4,2.1-8.07,4-12.09,6a174.73,174.73,0,0,0-24.18,14.29c-2.26,1.63-4.39,3.43-6.69,5-3.43,2.32-5.35,1.54-6.61-2.35A47.23,47.23,0,0,1,111,101.68C110.49,91.91,109.1,82.1,110.51,74Z"/><path class="cls-9" d="M129.48,244.85c23.14-47.9,94.88-67,121.7-75.31,23.21-7.17,85.51,10.75,113.3,35.52,0,0-9.45,28.54-36.75,47.7-8.67,6.09-39.51,55-17.84,73.74,13,11.2,20.92,17.7,20.92,17.7s-2,69.14.24,69.14,17.57,5.22,16.52,12.88-15.66,30.93-39,21.38-24.09-14.77-26-12.68-2.23,15.65-14.06,18.79-56,22.27-58.1-55.68c0,0,37.44-33.07,29.85-53.42s-33.8-16.15-35.3-30.77S123.72,256.76,129.48,244.85Z"/><path class="cls-10" d="M335.6,416.49c-9.77-2.24-49.6-1.42-48.19,10.09,1.58,12.95,1.18,16.74,14.47,21.59,11.46,4.19,28.13,5.57,37.48-3.81C347.23,436.46,347.17,419.44,335.6,416.49Zm-4.77,15.73h0C331.7,431.75,331.7,431.76,330.83,432.22Z"/><path class="cls-10" d="M267.14,423.19C235,419.27,219.47,436.76,218,437.8c-4.07,2.87-1.8,7,5.66,13.46,8.32,7.17,23.06,6.09,33.25,4.78,10.35-1.32,22.41-6.13,22.34-18.41C279.21,432.52,272.85,423.88,267.14,423.19Z"/><path class="cls-8" d="M296.92,30.76a13.64,13.64,0,0,1,10.31,7.8,107.16,107.16,0,0,1,7.68,22.62,128.72,128.72,0,0,1,2.75,19.16c.56,5-.35,5.86-5.1,4.26-7.72-2.61-23.89-6-37.52-9.38-3.52-.86-5.09-3-4-6.61,4.09-13.32,10.19-25.53,20.09-35.59A7.42,7.42,0,0,1,296.92,30.76Z"/><path class="cls-11" d="M252.51,178c-6.24,0-10.91-4.1-13.15-7.93-1.05-2.94-.76-4.3,1.5-6.28a22.42,22.42,0,0,1,18.79-5.25c3.33.5,6.09,2.2,6.82,5.76.07,3.61-2.51,8.42-5.63,10.86A12.12,12.12,0,0,1,252.51,178Z"/><path class="cls-12" d="M213.69,160.37a19.56,19.56,0,0,1-2.48-3.8c-1.49-2.85-3.05-5.53-6-7.07-3.15-1.63-7-1.55-10.4-1.67-3.74-.13-7.47-.14-11.21,0a161.84,161.84,0,0,0-25.78,3,3,3,0,0,0-1.89,1.17,2.46,2.46,0,0,0-1.81.91,2.63,2.63,0,0,0,.36,3.67c3.93,2.73,6.37,7,10.21,9.86a20.54,20.54,0,0,0,7.54,3.23,3.23,3.23,0,0,0,.92.79c3.07,1.77,6.63,1.92,10.09,2,3.74,0,7.48-.06,11.21-.32A51.48,51.48,0,0,0,206,170.11a37.88,37.88,0,0,0,5-2c1.52-.7,3.72-1.32,4.47-3C216.43,163.22,214.83,161.7,213.69,160.37Zm-35.27-7.06c.78-.06,1.57-.09,2.35-.14A14.39,14.39,0,0,1,178.42,153.31Z"/><path class="cls-13" d="M149.1,151.31c6.68-1.82,13.35-3.4,20.11-4.8,10.31-1.93,20.68-4.16,31.36-3.09a14.54,14.54,0,0,1,6,2,23,23,0,0,1,4.29,4c4.75,5.67,7.75,12,10.29,18.84L215.74,170a76.65,76.65,0,0,0-3.89-9c-2.17-4.16-4.69-8.38-8.35-11.14-3.73-2-9-1.55-13.38-1.43-13.38.91-26.87,3.75-39.94,6.9l-1.08-4Z"/><path class="cls-13" d="M154.88,152a29.59,29.59,0,0,0,26.47,18.55c11.6.57,23.76-2.28,34.33-7l2.34,5.16a73.74,73.74,0,0,1-9,3.18c-12.1,3.33-25.3,5.35-37.56,1.38a34.07,34.07,0,0,1-20.13-20.08l3.52-1.22Z"/><path class="cls-12" d="M320,118a45,45,0,0,0-16,2.1c-4.77,1.55-9.08,4.12-13.56,6.33-4.06,2-8.8,3.28-10.09,8.2a44.33,44.33,0,0,0-1,7.61,52.51,52.51,0,0,0-.07,8,7.86,7.86,0,0,0,4.64,3.12c5.23-.54,10.49-1,15.7-1.69a35.7,35.7,0,0,0,7.54-1.56c2.26-.83,4.08-2.37,6.11-3.6a14.56,14.56,0,0,0,5-4.51,43.24,43.24,0,0,0,3.85-6.11c1.07-2.38.64-5.07.49-7.6l-.49-8A2.62,2.62,0,0,0,320,118Z"/><path class="cls-13" d="M276.74,157.23c-1.62-8.79-3.6-23.32,4.51-29.49A73.92,73.92,0,0,1,308,116.66a89.3,89.3,0,0,1,19.14-1.78v3.59a85.19,85.19,0,0,0-18.24,2.2,69.56,69.56,0,0,0-24.83,11c-3.91,3.27-3.62,10.33-3.28,15.34a62.8,62.8,0,0,0,1.43,8.85l-5.51,1.32Z"/><path class="cls-13" d="M323.58,116.48c3,15.29-.27,34.29-18.24,37.38a158.13,158.13,0,0,1-17.53,2.38,30.25,30.25,0,0,1-8.43-.34,4.52,4.52,0,0,1-2.36-1.24l4.21-3.79a2.31,2.31,0,0,0-.35-.33l-.11-.07-.1-.07h0l.07,0,.15.05a27.18,27.18,0,0,0,6.71.4,154.53,154.53,0,0,0,17-1.72c15.33-1.93,17.85-19.22,15.8-32l3.23-.66Z"/><ellipse class="cls-13" cx="184.03" cy="158.28" rx="5.57" ry="10.9" transform="translate(-25.69 36.06) rotate(-10.46)"/><ellipse class="cls-13" cx="295.41" cy="135.22" rx="5.57" ry="10.9" transform="translate(-11.71 29.26) rotate(-5.56)"/><path class="cls-14" d="M194.44,78.61s8.27,27.47,12.89,27.88-1.81-24.23-5.1-31.21S194.44,78.61,194.44,78.61Z"/><path class="cls-14" d="M239.84,69.71s2.11,30,6.75,30c7.8-.1,3.32-24.07,1.56-31.59"/><path class="cls-14" d="M214.41,71.91s9.45,40.6,15.84,39.52c10.75-1.82-.66-33.63-4.72-43.53"/><path class="cls-14" d="M149.25,285.38s34.35,36.18,41.61,42.41-4,11.59-13.44,7.24-20.27-15.92-24.58-19.53-9.06-15.32-9.06-15.32Z"/><path class="cls-14" d="M137.52,331.45s19.48,30.24,31,34.88S180,377.91,173,381.4s-43.12-1.85-43.83-11.36S137.52,331.45,137.52,331.45Z"/><path class="cls-14" d="M146.8,412s23.11-6.06,34.75-5.12,6.88,9.47-6,13.64S146.8,434.3,146.8,434.3,124.08,422.47,146.8,412Z"/><path class="cls-14" d="M207.89,377.06s6.61-5.9,11.48-9.26,6.27,3.11,3.83,6.91-14.7,14.07-14.7,14.07Z"/><path class="cls-14" d="M321.76,282.24c-.7.17-12.88,8.26-10.79,12,1.82,3.22,11.14,1.3,12.53.58S321.76,282.24,321.76,282.24Z"/><path class="cls-14" d="M324.91,313s-12.72.88-13.07,4,2.56,3.79,7.84,4.87c5.63,1.16,8.26,0,8.26,0"/><path class="cls-14" d="M92.07,171.7s27.83-6.35,36.29-3.75-29.11,23.43-34,23.43S92.07,171.7,92.07,171.7Z"/><path class="cls-14" d="M110.73,232s8.23,10.9,9.16,10.9,11.92-21.34,19.65-25.52-2.17-4.48-2.17-4.48S120.83,220.19,110.73,232Z"/><path class="cls-14" d="M366.47,190.11s-9.82-6-17.51-7.13,1.51-5.72,7-4.94c2.18.31,12.63,5.15,12.63,5.15Z"/><path class="cls-14" d="M340.09,128.54s-2.81,3.76-.51,5.26,20.37.92,21.65,2.1S358.1,125,358.1,125,345.08,125.84,340.09,128.54Z"/><path class="cls-10" d="M158.26,270.63a100.49,100.49,0,0,0,33.89,5c3.21-.08,3.22-5.08,0-5a96.21,96.21,0,0,1-32.56-4.78c-3.06-1-4.38,3.82-1.33,4.82Z"/><path class="cls-10" d="M309.86,259.17c-1.81,1-3.56,2.17-5.45,3.06l-.72.33c-.53.23.53-.21,0,0l-.4.16c-.61.24-1.23.45-1.86.64a41,41,0,0,1-5,1.18,2.52,2.52,0,0,0-1.75,3.08,2.57,2.57,0,0,0,3.08,1.74,36.55,36.55,0,0,0,9.07-2.75c1.94-.9,3.73-2.08,5.59-3.13a2.52,2.52,0,0,0,.89-3.42,2.55,2.55,0,0,0-3.42-.89Z"/><path class="cls-10" d="M236.57,289.18l-.31,6.25a1.08,1.08,0,0,0,1.08,1.08,1.1,1.1,0,0,0,1.09-1.08l.3-6.25a1.1,1.1,0,0,0-1.08-1.09,1.11,1.11,0,0,0-1.08,1.09Z"/><path class="cls-10" d="M248.85,291.91c0,.12,0,.24.05.35s0,.16,0,.24,0-.07,0,0c0,.23.05.47.08.71,0,.49.09,1,.12,1.48.05,1,.06,2,0,3a1.08,1.08,0,0,0,1.08,1.08,1.11,1.11,0,0,0,1.08-1.08,32.94,32.94,0,0,0-.38-6.35,1.08,1.08,0,0,0-1.33-.75,1.12,1.12,0,0,0-.76,1.33Z"/><path class="cls-10" d="M260.41,294.61A21.45,21.45,0,0,1,261,297l.09.56c0-.26,0,.08,0,.13s0,.22,0,.33c0,.41.06.82.08,1.23a1.09,1.09,0,1,0,2.17,0,21.58,21.58,0,0,0-.86-5.23,1.08,1.08,0,1,0-2.09.58Z"/><path class="cls-10" d="M271.13,288.4a1.6,1.6,0,0,1,.13.3c-.09-.27,0,0,0,0s.14.35.2.53c.13.36.25.72.36,1.09a17,17,0,0,1,.47,2.23,1.05,1.05,0,0,0,.5.65,1.14,1.14,0,0,0,.83.11,1.13,1.13,0,0,0,.65-.5,1.32,1.32,0,0,0,.11-.83,17.34,17.34,0,0,0-1.4-4.72,1.08,1.08,0,0,0-1.48-.38,1.11,1.11,0,0,0-.39,1.48Z"/><path class="cls-10" d="M279.45,281.48c0,.06.05.12.08.17,0-.12,0-.12,0,0s.07.17.11.25l.22.6q.21.58.39,1.17a20.71,20.71,0,0,1,.57,2.45,1.09,1.09,0,0,0,1.33.76,1.13,1.13,0,0,0,.76-1.34,22.72,22.72,0,0,0-1.58-5.15,1.09,1.09,0,0,0-1.48-.39,1.12,1.12,0,0,0-.39,1.48Z"/><path class="cls-10" d="M286.38,276.91l.19.23-.17-.22a9.24,9.24,0,0,1,.73,1.11.74.74,0,0,0,.28.3.71.71,0,0,0,.37.2.89.89,0,0,0,.43,0,.82.82,0,0,0,.4-.13,1.13,1.13,0,0,0,.5-.65,1.19,1.19,0,0,0-.11-.83,9.91,9.91,0,0,0-1.09-1.56,1.15,1.15,0,0,0-.76-.32.86.86,0,0,0-.42.09.89.89,0,0,0-.35.23,1.07,1.07,0,0,0-.32.76l0,.29a1.17,1.17,0,0,0,.28.48Z"/><path class="cls-15" d="M281.92,376.3c1.83,33.23,1.55,67.64,17.05,71.68,34.8,9.09,42.54-2.64,47.06-15.16s-13.83-18.59-13.83-18.59c1.33-59-12.32-152.42-12.32-152.42,39.83-31.94,50.07-66.44,48.68-101.76s-37.24-72-37.24-72-8.45-73.81-33-73.38S255.6,67.76,255.6,67.76C230,64,182.06,79.06,182.06,79.06S133.44,21,114.21,32.23c-27.66,16.22-13.11,92-13.11,92s-40.13,95.27,50.33,143c0,0-31.37,103-20.6,134.7s19.55,50.41,85,46.43"/><path class="cls-15" d="M205.54,372.19S208,452.39,228.85,455s56.49,2.54,52.55-19c-2.49-13.57-13.4-15.49-13.4-15.49l-4.7-47.23"/><path class="cls-14" d="M111.85,403.68s-13.41.45-15.53,3.23c-3.72,4.87,7.36,34,14.31,34.34,4.74.23,15.26-5.21,15.26-5.21A53.42,53.42,0,0,1,111.85,403.68Z"/><path class="cls-14" d="M64.67,418.12s-17.89,7.42-14.49,16.12,34.36,19.07,37.71,18.44,9.73-5.37,9.73-5.37S77,426.35,64.67,418.12Z"/><path class="cls-14" d="M43.57,482s14.84,18.21,27.83,15S100,484.63,97,474.2s-4-13.35-8.15-14C58.07,455.72,45.31,474.82,43.57,482Z"/><path class="cls-15" d="M128.86,401.59S14.35,409.48,39.47,476.4c11.2,29.85,56.1,19.14,57.89.52,1-10.37-5.39-15.37-7.69-16.93-1.6-1.09-16.74-10.38,57.13-25.69"/><path class="cls-15" d="M244.45,442.07s2.32,9.15,1.05,14.08"/><path class="cls-15" d="M262.43,438.59s4.52,7.53,3.13,14.09"/><path class="cls-15" d="M313.12,432.9s.93,10.84-2.09,16.21"/><path class="cls-15" d="M328.2,431.05a25.32,25.32,0,0,1-1.13,19.6"/><path class="cls-13" d="M97.35,246.89c9.36-8.12,20.74-13.1,32.63-16.15a326.33,326.33,0,0,1,33.92-6.69,148.72,148.72,0,0,1,16.87-1.69c3.21-.1,3.23-5.1,0-5-11.38.36-22.79,2.4-33.94,4.55-10.21,2-20.69,4-30.37,7.87a79.5,79.5,0,0,0-22.64,13.58,2.51,2.51,0,0,0,0,3.53,2.54,2.54,0,0,0,3.53,0Z"/><path class="cls-13" d="M128.28,270.52c2.63-5.49,7.11-9.95,11.71-13.84a90.18,90.18,0,0,1,17.07-11.29,60.37,60.37,0,0,1,9.08-3.86c3.05-1,1.75-5.81-1.33-4.82a78.78,78.78,0,0,0-18,8.82A81.21,81.21,0,0,0,130,259.33,37.54,37.54,0,0,0,124,268a2.57,2.57,0,0,0,.9,3.42,2.52,2.52,0,0,0,3.42-.9Z"/><path class="cls-13" d="M319.88,199.4a209.68,209.68,0,0,1,30.59.9c8.69.91,17.57,2.6,25.55,6.25a66.19,66.19,0,0,1,11.88,7.17,2.52,2.52,0,0,0,3.42-.9,2.56,2.56,0,0,0-.9-3.42,67.53,67.53,0,0,0-23.49-11.26c-9.49-2.45-19.34-3.34-29.11-3.73q-9-.36-17.94,0c-3.21.13-3.23,5.13,0,5Z"/><path class="cls-13" d="M323.8,223.52a55.66,55.66,0,0,1,6.48,2.9c2.86,1.45,5.66,3,8.4,4.68a144.21,144.21,0,0,1,17,11.74,77.21,77.21,0,0,1,7.72,7.08c2.2,2.36,5.73-1.18,3.54-3.53a100,100,0,0,0-15.57-13,153.12,153.12,0,0,0-17.69-10.84,72.1,72.1,0,0,0-8.51-3.83,2.52,2.52,0,0,0-3.08,1.74,2.57,2.57,0,0,0,1.75,3.08Z"/><path class="cls-16" d="M247.79,205.57c2.57-3.14,6-5.07,9.54-7a8,8,0,0,1,1.1-.41c2.83-.55,5.67.59,8.33,1.31,2.1.69,4.25,1.16,6,2.83l-.72,2.21c-3.41.37-6.28-1-9.5-1.48a17.12,17.12,0,0,0-2.86-.36s-.12,0-.2,0c-3.45,1.47-6.24,4.12-9.92,5.3l-1.79-2.49Z"/><path class="cls-16" d="M259.23,190.12c1.18,1.5,1.44,3.24,1.83,5a17.25,17.25,0,0,1,.27,5.61l-4.24-.31c-.08-1.37-.26-3-.48-4.57s-.65-3.46-.3-5l2.92-.78Z"/><path class="cls-10" d="M302.25,290.25c-.74-.43-4.29-.14-5.05.64a31.39,31.39,0,0,0-3.78,5.43,24.34,24.34,0,0,1-3.58,4.41,45.91,45.91,0,0,1-9.51,6.93c-2.91,1.69-.66,5.21,2.63,4.51,7.78-1.66,17.25-10.3,18.1-11,1.38-1.2,1.25-2.63,1.35-4.27a9,9,0,0,1,.78-3.05A2.69,2.69,0,0,0,302.25,290.25Z"/><path class="cls-10" d="M243.62,316.65A2.67,2.67,0,0,0,241,314c-6.06-.66-12.18-1.36-18-3.31a31.11,31.11,0,0,1-14.27-9.8,3.35,3.35,0,0,0-3.91-.88c-1.7,1.2-2.73,3.64-.83,5.66s2.44,1.78,3.87,7.63c.47,1.93,3.12,2.34,4.89,3a37.75,37.75,0,0,0,5.28,1.6c7.52,1.71,15.29,1.54,22.95,1.3A2.66,2.66,0,0,0,243.62,316.65Z"/><path class="cls-10" d="M259.5,329.37c-6.88-.63-14.87,1.81-21.12-2.07a2.29,2.29,0,0,0-2.1-.26A2.83,2.83,0,0,0,234,329c-.41,1.5.83,2.19,1.82,3.21,2.32,2.38,1.88,2.73,3.36,3.62a6.33,6.33,0,0,0,3.54.58l3.86-.09c4.57-.11,9.26-.19,13.59-1.81A2.62,2.62,0,0,0,259.5,329.37Z"/><path class="cls-10" d="M300.46,317.85c-.44-.67-1.29-4-4.91-1.16-8.22,6.37-11.34,6.37-14,7.62a2.63,2.63,0,0,0-.87,3.59,4.14,4.14,0,0,0,2.51,1.3c1.17.29,9.59-.89,12.18-1.95a31.49,31.49,0,0,0,4.91-3.09C303.72,321.94,301.81,319.93,300.46,317.85Z"/><path class="cls-17" d="M463.63,360.26c1-.66,11.83-4.74,9.89,8.65,0,0,9.24,17.44-8,22.37,0,0-1.79,5.25-3.72,5s-1.68-1.4-1.68-1.4,1.79-5,2.28-6.7-.66-10.53.31-14.22S457.89,364.05,463.63,360.26Z"/><path class="cls-18" d="M473.9,371.59a2.5,2.5,0,0,1-.39.34l.11-.07a3.48,3.48,0,0,1-.75.43l.12-.05-.28.1a.5.5,0,0,0-.3.23.49.49,0,0,0-.05.39.51.51,0,0,0,.61.35,3.9,3.9,0,0,0,1.63-1,.51.51,0,0,0,0-.71.5.5,0,0,0-.7,0Z"/><path class="cls-18" d="M475.19,376.26c-.38.27-.76.55-1.16.79l-.28.15-.15.08c-.05,0-.05,0,0,0l-.08,0-.31.09-.07,0H473a.5.5,0,0,0-.5.5.51.51,0,0,0,.5.5,5.39,5.39,0,0,0,2.72-1.3.5.5,0,1,0-.51-.87Z"/><path class="cls-18" d="M464.05,374.39a2.83,2.83,0,0,0,.55.21,2.53,2.53,0,0,0,.61.06c.38,0,.75,0,1.12-.07a.61.61,0,0,0,.36-.15.52.52,0,0,0,.14-.35c0-.25-.22-.54-.5-.5s-.69.06-1,.07h-.36c-.13,0,.07,0,0,0l-.2-.06c-.11,0,.08,0,0,0l-.13-.06a.59.59,0,0,0-.39,0,.5.5,0,0,0-.12.92Z"/><path class="cls-18" d="M464.3,378.24a2.76,2.76,0,0,0,1.51.43c.55,0,1.1,0,1.65,0a.51.51,0,0,0,.5-.5.52.52,0,0,0-.5-.5c-.52,0-1,0-1.56,0l-.33,0h-.08l-.16,0-.15,0-.12,0-.1,0-.16-.1a.5.5,0,0,0-.5.86Z"/><path class="cls-18" d="M464.36,383.4a6.61,6.61,0,0,0,2.55.8c.9.07,1.8-.06,2.69.05.27,0,.5-.25.5-.5a.52.52,0,0,0-.5-.5c-.83-.1-1.67,0-2.5,0a5.59,5.59,0,0,1-2.24-.67.51.51,0,0,0-.68.18.5.5,0,0,0,.18.68Z"/><path class="cls-18" d="M473.39,384.17a4.58,4.58,0,0,0,1.62-.47.5.5,0,0,0-.5-.87l-.27.13.12,0a3.63,3.63,0,0,1-.95.26l.13,0-.15,0a.53.53,0,0,0-.35.15.48.48,0,0,0,0,.7.47.47,0,0,0,.35.15Z"/><path class="cls-19" d="M462.67,373.56c.36,1.53-.24,3.06-.4,4.58a27.23,27.23,0,0,0,.17,4.6c.1,1.53.34,3.11.3,4.64a7.44,7.44,0,0,1-.68,2.3l-.88,2.32c-.23.6.73.86,1,.27l.93-2.44a8,8,0,0,0,.66-2.23,18,18,0,0,0-.11-2.32l-.18-2.54a23.82,23.82,0,0,1-.13-4.92c.22-1.52.68-3,.32-4.53-.14-.62-1.11-.36-1,.27Z"/><path class="cls-19" d="M463.1,373.57c.08,2.85-.53,5.67-.31,8.52.19,2.55.81,5.35-.65,7.65-.35.55.51,1.05.86.51,1.48-2.33,1.06-5.1.83-7.69-.28-3,.36-6,.27-9,0-.64-1-.64-1,0Z"/><path class="cls-20" d="M466.44,358l.09.49,0-.14a4.58,4.58,0,0,1,0,1.11l0-.13s0,0,0,0a.36.36,0,0,1,.16-.22.5.5,0,0,0-.18.68.52.52,0,0,0,.69.18.73.73,0,0,0,.33-.67c0-.17,0-.34,0-.51a4.94,4.94,0,0,0-.15-1.09.5.5,0,1,0-1,.26Z"/><path class="cls-20" d="M466.67,358.11c.05.09.09.17.13.26l-.05-.12a5.6,5.6,0,0,1,.17.54,1.43,1.43,0,0,0,.12.31.84.84,0,0,0,.43.33.51.51,0,0,0,.38-.05.51.51,0,0,0,.18-.69.58.58,0,0,0-.3-.23h0l.11.05,0,0,.1.08-.05-.05.08.1a.56.56,0,0,1-.05-.08l.06.12c-.06-.15-.09-.31-.14-.46a2.51,2.51,0,0,0-.26-.58.48.48,0,0,0-.29-.23.53.53,0,0,0-.39.05.5.5,0,0,0-.23.3.5.5,0,0,0,.05.38Z"/><path class="cls-21" d="M461.13,365.3s1-.6,1.3-.73S461.13,365.3,461.13,365.3Z"/><path class="cls-21" d="M461.21,365.13a7.69,7.69,0,0,0,.91.9"/><path class="cls-22" d="M462.66,374.87s-2.75-2.31-2.93-3.34,1.82-2.68,2.23-2.37.62.16,2.68.93a8.61,8.61,0,0,1,2.22,1"/><path class="cls-13" d="M462.11,395.78c1.57-.88,2.34-3.19,3.06-4.91l.26-.08c7.05-1.94,11.59-7.74,9.82-15.18a21,21,0,0,0-2.09-6.36s-.13-.45-.12-.45c.63-3.13.38-7.51-3.06-8.83-.35-.11-1-.28-1.37-.43-.78-.39-1-1.43-1.27-2.05l.08-.15c.74.36,1.15,1,1.81,1.39l0,0,.12,0,.93.28c3.94,1.48,4.42,6.36,3.67,9.95l-.12-.45a7,7,0,0,1,.91,1.71c3.85,9.88,1.67,18.21-9.13,21.48l.35-.31a15,15,0,0,1-2.33,4.34,2.18,2.18,0,0,1-1.79.95l.22-1Z"/><path class="cls-16" d="M439,101.88c1.44-1.11,2.67-2.13,4-3a16.67,16.67,0,0,1,6.84-3c5.69-1,10.18,4.41,8.61,10.26a15.75,15.75,0,0,1-6.84,9.39c-.37.25-1,.41-.92.93s.75.45,1.19.53a16.93,16.93,0,0,1,8.22,3.56c2.88,2.45,3.1,5,.51,7.8a19,19,0,0,1-9.45,5.14c-1.18.31-2.39.54-3.58.83-.43.1-1.13,0-1.22.46a1.87,1.87,0,0,0,.6,1.66,7.74,7.74,0,0,0,1,.73,2.94,2.94,0,0,1,1.42,2.18,4.21,4.21,0,0,0,1.57,3.06,2.44,2.44,0,0,1,.63.93,2.12,2.12,0,0,1-.37,2.5,2,2,0,0,1-2.48.32,5.87,5.87,0,0,1-3.31-4.17,2.85,2.85,0,0,0-1.17-2,6.28,6.28,0,0,1-2.2-3.69c-.34-1.13-2.83-1.81-3.73-1.06a.92.92,0,0,0-.23.91A9.17,9.17,0,0,0,439,139a4,4,0,0,1,0,3.57,6.92,6.92,0,0,0-.8,3.95,6.21,6.21,0,0,1,0,1.14,2.14,2.14,0,1,1-4.28.08,10.88,10.88,0,0,1,.44-5,4.42,4.42,0,0,0,.06-3.16,10.88,10.88,0,0,1-.65-3.47c0-1.65-1.35-1.07-2.13-1.4s-1.17.19-1.37.93a5,5,0,0,1-.51,1.16,6.77,6.77,0,0,0-1.31,4.35,3.61,3.61,0,0,1-1.35,3.14,23.1,23.1,0,0,0-2.73,3.43c-1,1.32-2.32,1.66-3.43.9s-1.19-2-.29-3.4a5.89,5.89,0,0,1,.88-1.11c1.57-1.54,2.91-3.15,2.61-5.61-.11-.84.54-1.58,1-2.3a10.52,10.52,0,0,0,.94-1.57c.2-.47.69-1,.06-1.53s-1,.14-1.46.43c-2.83,1.86-5.82,2.44-9,1.05a1.44,1.44,0,0,0-1.55.15,10.78,10.78,0,0,1-4.84,1.87,7.64,7.64,0,0,1-2,0,2.07,2.07,0,0,1,.06-4.14,13.23,13.23,0,0,0,3.31-.73c.9-.34,1.25-.78.72-1.79a6.27,6.27,0,0,1-.35-5.22c.35-.94.09-1.33-.78-1.7a11.61,11.61,0,0,1-6.92-7.24,4.06,4.06,0,0,1-.3-1.65,2,2,0,0,1,3.22-1.56,3.22,3.22,0,0,1,1.38,1.93c.74,3.29,3.76,3.83,6.12,5.15a.71.71,0,0,0,.91-.2c.28-.48-.16-.8-.42-1.09a17.81,17.81,0,0,1-4.3-8.49c-.23-1.14-.1-2.13,1-2.64a2.07,2.07,0,0,1,2.77,1,3.62,3.62,0,0,1,.56,1.13c.69,3.28,2.89,5.59,5.13,7.83.93.93,2.41.56,3.59,1,.46.17.34-.64.29-1a63.94,63.94,0,0,1-.68-11.14c.12-3.66.61-7.26,2.59-10.46a8.18,8.18,0,0,1,5.13-3.75A6.27,6.27,0,0,1,437.94,96a17.79,17.79,0,0,1,.74,2.87C438.85,99.75,438.89,100.7,439,101.88Zm-6.29,15.49a1.17,1.17,0,0,0,1.08,0c2.66-.81,5.33-1.57,8-2.42a24,24,0,0,0,8.28-4.18c2-1.71,3.66-3.7,3.92-6.47s-1.64-4.31-4.26-3.57a9,9,0,0,0-2.22.89c-4.82,2.74-8.45,6.74-11.77,11.06A19.51,19.51,0,0,0,432.73,117.37Zm-4.78-2c1.61-2.31,3-4.45,4.53-6.46,2.76-3.56,2.08-7.44,1.14-11.32-.27-1.13-1.28-1.53-2.49-1.09-1.73.63-2.37,2.13-2.81,3.67a28.46,28.46,0,0,0-.79,9.69A38.9,38.9,0,0,0,428,115.4Zm-9.29,13.49a2.46,2.46,0,0,0,2.51-2.51,2.33,2.33,0,0,0-2.35-2.33,2.42,2.42,0,0,0-2.37,2.63A2.07,2.07,0,0,0,418.66,128.89Z"/><path class="cls-23" d="M432.73,117.37a19.51,19.51,0,0,1,3-4.69c3.32-4.32,6.95-8.32,11.77-11.06a9,9,0,0,1,2.22-.89c2.62-.74,4.51.84,4.26,3.57s-1.88,4.76-3.92,6.47a24,24,0,0,1-8.28,4.18c-2.64.85-5.31,1.61-8,2.42A1.17,1.17,0,0,1,432.73,117.37Z"/><path class="cls-23" d="M428,115.4a38.9,38.9,0,0,1-.42-5.51,28.46,28.46,0,0,1,.79-9.69c.44-1.54,1.08-3,2.81-3.67,1.21-.44,2.22,0,2.49,1.09.94,3.88,1.62,7.76-1.14,11.32C430.93,111,429.56,113.09,428,115.4Z"/><path class="cls-24" d="M418.66,128.89a2.07,2.07,0,0,1-2.21-2.21,2.42,2.42,0,0,1,2.37-2.63,2.33,2.33,0,0,1,2.35,2.33A2.46,2.46,0,0,1,418.66,128.89Z"/></svg>